<?xml version="1.0" encoding="UTF-8" standalone="no"?>
<svg
   xmlns:dc="http://purl.org/dc/elements/1.1/"
   xmlns:cc="http://creativecommons.org/ns#"
   xmlns:rdf="http://www.w3.org/1999/02/22-rdf-syntax-ns#"
   xmlns:svg="http://www.w3.org/2000/svg"
   xmlns="http://www.w3.org/2000/svg"
   xmlns:sodipodi="http://sodipodi.sourceforge.net/DTD/sodipodi-0.dtd"
   xmlns:inkscape="http://www.inkscape.org/namespaces/inkscape"
   width="210mm"
   height="297mm"
   viewBox="0 0 210 297"
   version="1.1"
   id="svg8"
   inkscape:version="1.0.1 (3bc2e81, 2020-09-07)"
   sodipodi:docname="vc01.svg">
  <defs
     id="defs2" />
  <sodipodi:namedview
     id="base"
     pagecolor="#ffffff"
     bordercolor="#666666"
     borderopacity="1.0"
     inkscape:pageopacity="0.0"
     inkscape:pageshadow="2"
     inkscape:zoom="5.6"
     inkscape:cx="269.59243"
     inkscape:cy="658.46538"
     inkscape:document-units="mm"
     inkscape:current-layer="layer2"
     inkscape:document-rotation="0"
     showgrid="false"
     inkscape:window-width="2488"
     inkscape:window-height="1376"
     inkscape:window-x="72"
     inkscape:window-y="27"
     inkscape:window-maximized="1" />
  <metadata
     id="metadata5">
    <rdf:RDF>
      <cc:Work
         rdf:about="">
        <dc:format>image/svg+xml</dc:format>
        <dc:type
           rdf:resource="http://purl.org/dc/dcmitype/StillImage" />
        <dc:title></dc:title>
      </cc:Work>
    </rdf:RDF>
  </metadata>
  <g
     inkscape:label="Ebene 1"
     inkscape:groupmode="layer"
     id="layer1"
     style="display:none">
    <g
       style="fill:#000000;fill-opacity:1;stroke:#000000;stroke-linecap:round;stroke-linejoin:round;stroke-opacity:1"
       id="g14"
       transform="matrix(0.00254,0,0,0.00254,59.17974,151.0746)" />
    <g
       style="fill:#000000;fill-opacity:0;stroke:#000000;stroke-width:-0.000393701;stroke-linecap:round;stroke-linejoin:round;stroke-opacity:1"
       id="g16"
       transform="matrix(0.00254,0,0,0.00254,59.17974,151.0746)" />
    <g
       style="fill:#008484;fill-opacity:0;stroke:#008484;stroke-width:-0.000393701;stroke-linecap:round;stroke-linejoin:round;stroke-opacity:1"
       id="g18"
       transform="matrix(0.00254,0,0,0.00254,59.17974,151.0746)" />
    <g
       style="fill:#000000;fill-opacity:0;stroke:#000000;stroke-width:59.0551;stroke-linecap:round;stroke-linejoin:round;stroke-opacity:1"
       id="g350"
       transform="matrix(0.00254,0,0,0.00254,59.17974,151.0746)" />
    <g
       style="fill:#c2c2c2;fill-opacity:0;stroke:#c2c2c2;stroke-width:59.0551;stroke-linecap:round;stroke-linejoin:round;stroke-opacity:1"
       id="g352"
       transform="matrix(0.00254,0,0,0.00254,59.17974,151.0746)" />
    <g
       style="fill:#c2c2c2;fill-opacity:0;stroke:#c2c2c2;stroke-width:59.0551;stroke-linecap:round;stroke-linejoin:round;stroke-opacity:1"
       id="g462"
       transform="matrix(0.00254,0,0,0.00254,59.17974,151.0746)">
      <g
         transform="rotate(-90,14498,9904.53)"
         id="g378">
        <text
           x="14498"
           y="10101.4"
           textLength="3488.8501"
           font-size="524.934px"
           lengthAdjust="spacingAndGlyphs"
           text-anchor="middle"
           opacity="0"
           id="text376">44.000 mm</text>
      </g>
      <path
         d="m 14413,11348 h 263"
         id="path380" />
      <path
         d="m 14263,11441 281,94 v -244"
         id="path382" />
      <path
         d="m 14413,10973 h 263"
         id="path384" />
      <path
         d="m 14263,11066 281,94 v -244"
         id="path386" />
      <path
         d="m 14638,10766 19,-18 19,18 -19,19 -19,-19 h 38"
         id="path388" />
      <path
         d="m 14282,10504 v -38 l 19,-37 18,-19 38,-19 75,-18 h 94 l 75,18 37,19 19,19 19,37 v 38 l -19,37 -19,19 -37,19 -75,19 h -94 l -75,-19 -38,-19 -18,-19 -19,-37"
         id="path390" />
      <path
         d="m 14282,10129 v -37 l 19,-38 18,-19 38,-18 75,-19 h 94 l 75,19 37,18 19,19 19,38 v 37 l -19,37 -19,19 -37,19 -75,19 h -94 l -75,-19 -38,-19 -18,-19 -19,-37"
         id="path392" />
      <path
         d="m 14282,9754 v -37 l 19,-38 18,-19 38,-18 75,-19 h 94 l 75,19 37,18 19,19 19,38 v 37 l -19,38 -19,18 -37,19 -75,19 h -94 l -75,-19 -38,-19 -18,-18 -19,-38"
         id="path394" />
      <path
         d="m 14676,9154 h -263"
         id="path396" />
      <path
         d="m 14451,9154 -19,-19 -19,-37 v -56 l 19,-38 37,-19 h 207"
         id="path398" />
      <path
         d="m 14469,8985 -37,-18 -19,-38 v -56 l 19,-38 37,-18 h 207"
         id="path400" />
      <path
         d="m 14676,8629 h -263"
         id="path402" />
      <path
         d="m 14451,8629 -19,-19 -19,-37 v -56 l 19,-38 37,-19 h 207"
         id="path404" />
      <path
         d="m 14469,8460 -37,-18 -19,-38 v -56 l 19,-38 37,-18 h 207"
         id="path406" />
      <path
         d="M 13986,18565 V 1243"
         id="path408" />
      <path
         d="m 10639,18565 h 3578"
         id="path410" />
      <path
         d="m 10639,1243 h 3578"
         id="path412" />
      <path
         d="m 13986,1243 231,443"
         id="path414" />
      <path
         d="m 13986,1243 -231,443"
         id="path416" />
      <path
         d="m 13986,18565 231,-443"
         id="path418" />
      <path
         d="m 13986,18565 -231,-443"
         id="path420" />
      <text
         x="6505.9102"
         y="20258.9"
         textLength="3488.8501"
         font-size="524.934px"
         lengthAdjust="spacingAndGlyphs"
         text-anchor="middle"
         opacity="0"
         id="text422">33.000 mm</text>
      <path
         d="m 4856,19846 h 243 l -131,150 h 56 l 38,19 19,18 18,38 v 94 l -18,37 -19,19 -38,19 h -112 l -38,-19 -18,-19"
         id="path424" />
      <path
         d="m 5231,19846 h 243 l -131,150 h 56 l 38,19 19,18 18,38 v 94 l -18,37 -19,19 -38,19 h -112 l -38,-19 -18,-19"
         id="path426" />
      <path
         d="m 5643,20202 19,19 -19,19 -19,-19 19,-19 v 38"
         id="path428" />
      <path
         d="m 5905,19846 h 38 l 37,19 19,18 19,38 19,75 v 94 l -19,75 -19,37 -19,19 -37,19 h -38 l -37,-19 -19,-19 -19,-37 -18,-75 v -94 l 18,-75 19,-38 19,-18 37,-19"
         id="path430" />
      <path
         d="m 6280,19846 h 38 l 37,19 19,18 19,38 19,75 v 94 l -19,75 -19,37 -19,19 -37,19 h -38 l -37,-19 -19,-19 -19,-37 -18,-75 v -94 l 18,-75 19,-38 19,-18 37,-19"
         id="path432" />
      <path
         d="m 6655,19846 h 38 l 37,19 19,18 19,38 19,75 v 94 l -19,75 -19,37 -19,19 -37,19 h -38 l -37,-19 -19,-19 -19,-37 -18,-75 v -94 l 18,-75 19,-38 19,-18 37,-19"
         id="path434" />
      <path
         d="m 7255,20240 v -263"
         id="path436" />
      <path
         d="m 7255,20015 19,-19 38,-19 h 56 l 37,19 19,37 v 207"
         id="path438" />
      <path
         d="m 7424,20033 19,-37 37,-19 h 57 l 37,19 19,37 v 207"
         id="path440" />
      <path
         d="m 7780,20240 v -263"
         id="path442" />
      <path
         d="m 7780,20015 19,-19 37,-19 h 57 l 37,19 19,37 v 207"
         id="path444" />
      <path
         d="m 7949,20033 19,-37 37,-19 h 56 l 38,19 19,37 v 207"
         id="path446" />
      <path
         d="M 9,19550 H 13001"
         id="path448" />
      <path
         d="m 9,16400 v 3381"
         id="path450" />
      <path
         d="m 13001,16400 v 3381"
         id="path452" />
      <path
         d="m 13001,19550 -443,231"
         id="path454" />
      <path
         d="m 13001,19550 -443,-231"
         id="path456" />
      <path
         d="m 9,19550 444,231"
         id="path458" />
      <path
         d="m 9,19550 444,-231"
         id="path460" />
    </g>
    <g
       style="fill:#c2c2c2;fill-opacity:0;stroke:#c2c2c2;stroke-width:59.0551;stroke-linecap:round;stroke-linejoin:round;stroke-opacity:1"
       id="g542"
       transform="matrix(0.00254,0,0,0.00254,59.17974,151.0746)">
      <text
         x="6112.21"
         y="495.07901"
         textLength="8306.9902"
         font-size="524.934px"
         lengthAdjust="spacingAndGlyphs"
         text-anchor="middle"
         opacity="0"
         id="text470">Akku: 40 x 18 mm x 5 mm</text>
      <path
         d="m 2072,363 h 187"
         id="path472" />
      <path
         d="M 2034,476 2165,82 2297,476"
         id="path474" />
      <path
         d="M 2428,476 V 82"
         id="path476" />
      <path
         d="m 2465,326 113,150"
         id="path478" />
      <path
         d="M 2578,213 2428,363"
         id="path480" />
      <path
         d="M 2747,476 V 82"
         id="path482" />
      <path
         d="m 2784,326 112,150"
         id="path484" />
      <path
         d="M 2896,213 2747,363"
         id="path486" />
      <path
         d="M 3234,213 V 476"
         id="path488" />
      <path
         d="m 3065,213 v 207 l 19,37 37,19 h 57 l 37,-19 19,-19"
         id="path490" />
      <path
         d="m 3421,438 19,19 -19,19 -18,-19 18,-19 v 38"
         id="path492" />
      <path
         d="m 3421,232 19,19 -19,19 -18,-19 18,-19 v 38"
         id="path494" />
      <path
         d="M 4078,213 V 476"
         id="path496" />
      <path
         d="m 3984,63 -94,282 h 244"
         id="path498" />
      <path
         d="m 4359,82 h 37 l 38,19 19,19 18,37 19,75 v 94 l -19,75 -18,37 -19,19 -38,19 h -37 l -38,-19 -18,-19 -19,-37 -19,-75 v -94 l 19,-75 19,-37 18,-19 38,-19"
         id="path500" />
      <path
         d="M 4921,476 5127,213"
         id="path502" />
      <path
         d="m 4921,213 206,263"
         id="path504" />
      <path
         d="M 5784,476 H 5559"
         id="path506" />
      <path
         d="M 5671,476 V 82 l -37,56 -38,38 -37,19"
         id="path508" />
      <path
         d="m 6009,251 -38,-19 -19,-19 -18,-37 v -19 l 18,-37 19,-19 38,-19 h 75 l 37,19 19,19 19,37 v 19 l -19,37 -19,19 -37,19 h -75 l -38,19 -19,18 -18,38 v 75 l 18,37 19,19 38,19 h 75 l 37,-19 19,-19 19,-37 v -75 l -19,-38 -19,-18 -37,-19"
         id="path510" />
      <path
         d="M 6627,476 V 213"
         id="path512" />
      <path
         d="m 6627,251 19,-19 38,-19 h 56 l 37,19 19,38 v 206"
         id="path514" />
      <path
         d="m 6796,270 19,-38 37,-19 h 56 l 38,19 19,38 v 206"
         id="path516" />
      <path
         d="M 7152,476 V 213"
         id="path518" />
      <path
         d="m 7152,251 19,-19 37,-19 h 57 l 37,19 19,38 v 206"
         id="path520" />
      <path
         d="m 7321,270 19,-38 37,-19 h 56 l 38,19 19,38 v 206"
         id="path522" />
      <path
         d="M 7940,476 8146,213"
         id="path524" />
      <path
         d="m 7940,213 206,263"
         id="path526" />
      <path
         d="m 8783,82 h -187 l -19,188 19,-19 37,-19 h 94 l 37,19 19,19 19,37 v 94 l -19,37 -19,19 -37,19 h -94 l -37,-19 -19,-19"
         id="path528" />
      <path
         d="M 9271,476 V 213"
         id="path530" />
      <path
         d="m 9271,251 18,-19 38,-19 h 56 l 38,19 18,38 v 206"
         id="path532" />
      <path
         d="m 9439,270 19,-38 38,-19 h 56 l 37,19 19,38 v 206"
         id="path534" />
      <path
         d="M 9796,476 V 213"
         id="path536" />
      <path
         d="m 9796,251 18,-19 38,-19 h 56 l 38,19 18,38 v 206"
         id="path538" />
      <path
         d="m 9964,270 19,-38 38,-19 h 56 l 37,19 19,38 v 206"
         id="path540" />
    </g>
    <g
       style="fill:#c2c2c2;fill-opacity:0;stroke:#c2c2c2;stroke-width:19.685;stroke-linecap:round;stroke-linejoin:round;stroke-opacity:1"
       id="g590"
       transform="matrix(0.00254,0,0,0.00254,59.17974,151.0746)" />
    <g
       style="fill:#000000;fill-opacity:0;stroke:#000000;stroke-width:31.4961;stroke-linecap:round;stroke-linejoin:round;stroke-opacity:1"
       id="g616"
       transform="matrix(0.00254,0,0,0.00254,59.17974,151.0746)" />
    <g
       style="fill:#c2c200;fill-opacity:0;stroke:#c2c200;stroke-width:31.4961;stroke-linecap:round;stroke-linejoin:round;stroke-opacity:1"
       id="g618"
       transform="matrix(0.00254,0,0,0.00254,59.17974,151.0746)" />
    <g
       id="g652"
       style="fill:#c2c200;fill-opacity:0;stroke:#c2c200;stroke-width:19.685;stroke-linecap:round;stroke-linejoin:round;stroke-opacity:1"
       transform="matrix(0.00254,0,0,0.00254,59.17974,151.0746)" />
    <g
       id="g654"
       style="fill:#c2c200;fill-opacity:0;stroke:#c2c200;stroke-width:19.685;stroke-linecap:round;stroke-linejoin:round;stroke-opacity:1"
       transform="matrix(0.00254,0,0,0.00254,59.17974,151.0746)" />
    <g
       id="g656"
       style="fill:#c2c200;fill-opacity:0;stroke:#c2c200;stroke-width:19.685;stroke-linecap:round;stroke-linejoin:round;stroke-opacity:1"
       transform="matrix(0.00254,0,0,0.00254,59.17974,151.0746)" />
    <g
       id="g658"
       style="fill:#c2c200;fill-opacity:0;stroke:#c2c200;stroke-width:19.685;stroke-linecap:round;stroke-linejoin:round;stroke-opacity:1"
       transform="matrix(0.00254,0,0,0.00254,59.17974,151.0746)" />
    <g
       id="g660"
       style="fill:#c2c200;fill-opacity:0;stroke:#c2c200;stroke-width:19.685;stroke-linecap:round;stroke-linejoin:round;stroke-opacity:1"
       transform="matrix(0.00254,0,0,0.00254,59.17974,151.0746)" />
    <g
       id="g662"
       style="fill:#c2c200;fill-opacity:0;stroke:#c2c200;stroke-width:19.685;stroke-linecap:round;stroke-linejoin:round;stroke-opacity:1"
       transform="matrix(0.00254,0,0,0.00254,59.17974,151.0746)" />
    <g
       id="g664"
       style="fill:#c2c200;fill-opacity:0;stroke:#c2c200;stroke-width:19.685;stroke-linecap:round;stroke-linejoin:round;stroke-opacity:1"
       transform="matrix(0.00254,0,0,0.00254,59.17974,151.0746)" />
    <g
       id="g666"
       style="fill:#c2c200;fill-opacity:0;stroke:#c2c200;stroke-width:19.685;stroke-linecap:round;stroke-linejoin:round;stroke-opacity:1"
       transform="matrix(0.00254,0,0,0.00254,59.17974,151.0746)" />
    <g
       id="g668"
       style="fill:#c2c200;fill-opacity:0;stroke:#c2c200;stroke-width:19.685;stroke-linecap:round;stroke-linejoin:round;stroke-opacity:1"
       transform="matrix(0.00254,0,0,0.00254,59.17974,151.0746)" />
    <g
       id="g670"
       style="fill:#c2c200;fill-opacity:0;stroke:#c2c200;stroke-width:19.685;stroke-linecap:round;stroke-linejoin:round;stroke-opacity:1"
       transform="matrix(0.00254,0,0,0.00254,59.17974,151.0746)" />
    <g
       id="g672"
       style="fill:#c2c200;fill-opacity:0;stroke:#c2c200;stroke-width:19.685;stroke-linecap:round;stroke-linejoin:round;stroke-opacity:1"
       transform="matrix(0.00254,0,0,0.00254,59.17974,151.0746)" />
    <g
       id="g674"
       style="fill:#c2c200;fill-opacity:0;stroke:#c2c200;stroke-width:19.685;stroke-linecap:round;stroke-linejoin:round;stroke-opacity:1"
       transform="matrix(0.00254,0,0,0.00254,59.17974,151.0746)" />
    <g
       id="g676"
       style="fill:#c2c200;fill-opacity:0;stroke:#c2c200;stroke-width:19.685;stroke-linecap:round;stroke-linejoin:round;stroke-opacity:1"
       transform="matrix(0.00254,0,0,0.00254,59.17974,151.0746)" />
    <g
       id="g678"
       style="fill:#c2c200;fill-opacity:0;stroke:#c2c200;stroke-width:19.685;stroke-linecap:round;stroke-linejoin:round;stroke-opacity:1"
       transform="matrix(0.00254,0,0,0.00254,59.17974,151.0746)" />
    <g
       id="g680"
       style="fill:#c2c200;fill-opacity:0;stroke:#c2c200;stroke-width:19.685;stroke-linecap:round;stroke-linejoin:round;stroke-opacity:1"
       transform="matrix(0.00254,0,0,0.00254,59.17974,151.0746)" />
    <g
       id="g682"
       style="fill:#c2c200;fill-opacity:0;stroke:#c2c200;stroke-width:19.685;stroke-linecap:round;stroke-linejoin:round;stroke-opacity:1"
       transform="matrix(0.00254,0,0,0.00254,59.17974,151.0746)" />
    <g
       id="g684"
       style="fill:#c2c200;fill-opacity:0;stroke:#c2c200;stroke-width:19.685;stroke-linecap:round;stroke-linejoin:round;stroke-opacity:1"
       transform="matrix(0.00254,0,0,0.00254,59.17974,151.0746)" />
    <g
       id="g686"
       style="fill:#c2c200;fill-opacity:0;stroke:#c2c200;stroke-width:19.685;stroke-linecap:round;stroke-linejoin:round;stroke-opacity:1"
       transform="matrix(0.00254,0,0,0.00254,59.17974,151.0746)" />
    <g
       id="g688"
       style="fill:#c2c200;fill-opacity:0;stroke:#c2c200;stroke-width:19.685;stroke-linecap:round;stroke-linejoin:round;stroke-opacity:1"
       transform="matrix(0.00254,0,0,0.00254,59.17974,151.0746)" />
  </g>
  <g
     inkscape:groupmode="layer"
     id="layer4"
     inkscape:label="c_silkscreen"
     style="display:none"
     sodipodi:insensitive="true">
    <g
       style="fill:#008484;fill-opacity:0;stroke:#008484;stroke-width:47.2441;stroke-linecap:round;stroke-linejoin:round;stroke-opacity:1"
       id="g92"
       transform="matrix(0.00254,0,0,0.00254,59.179741,151.0746)">
      <path
         d="m 4494,11968 v 203"
         id="path20" />
      <path
         d="m 5053,11968 v 203"
         id="path22" />
      <path
         d="M 4659,9888 V 9684"
         id="path24" />
      <path
         d="M 4100,9888 V 9684"
         id="path26" />
      <path
         d="m 7883,6361 158,-236"
         id="path28" />
      <path
         d="M 7883,8526 V 6361"
         id="path30" />
      <path
         d="m 7687,8723 196,-197"
         id="path32" />
      <path
         d="M 5324,8723 H 7687"
         id="path34" />
      <path
         d="m 5127,8526 197,197"
         id="path36" />
      <path
         d="M 5127,6361 V 8526"
         id="path38" />
      <path
         d="m 4970,6125 157,236"
         id="path40" />
      <path
         d="m 8041.34,6125 a 2171.43,2171.43 0 1 0 -3070.87,0"
         id="path42" />
      <path
         d="m 11112,10495 h -433"
         id="path44" />
      <path
         d="m 11309,10691 -197,-196"
         id="path46" />
      <path
         d="m 11309,10888 v -197"
         id="path48" />
      <path
         d="m 11112,11085 197,-197"
         id="path50" />
      <path
         d="m 10679,11085 h 433"
         id="path52" />
      <path
         d="M 10679,12424 H 9576"
         id="path54" />
      <path
         d="m 10679,9747 v 2677"
         id="path56" />
      <path
         d="m 9576,9747 h 1103"
         id="path58" />
      <path
         d="M 9576,12424 V 9747"
         id="path60" />
      <path
         d="m 1899,11676 h 433"
         id="path62" />
      <path
         d="m 1702,11479 197,197"
         id="path64" />
      <path
         d="m 1702,11282 v 197"
         id="path66" />
      <path
         d="m 1899,11085 -197,197"
         id="path68" />
      <path
         d="M 2332,11085 H 1899"
         id="path70" />
      <path
         d="M 2332,9747 H 3435"
         id="path72" />
      <path
         d="M 2332,12424 V 9747"
         id="path74" />
      <path
         d="M 3435,12424 H 2332"
         id="path76" />
      <path
         d="m 3435,9747 v 2677"
         id="path78" />
      <path
         d="m 4887,9353 v 964"
         id="path80" />
      <path
         d="M 6155,10062 V 9353"
         id="path82" />
      <path
         d="m 5832,12360 v 128"
         id="path84" />
      <path
         d="m 6234,12360 v 128"
         id="path86" />
      <path
         d="m 5832,13541 v 128"
         id="path88" />
      <path
         d="m 6234,13541 v 128"
         id="path90" />
    </g>
    <g
       style="fill:#008484;fill-opacity:0;stroke:#008484;stroke-width:59.0551;stroke-linecap:round;stroke-linejoin:round;stroke-opacity:1"
       id="g108"
       transform="matrix(0.00254,0,0,0.00254,59.179741,151.0746)">
      <path
         d="m 6602,13349 h 81"
         id="path94" />
      <path
         d="m 6602,11184 h 118"
         id="path96" />
      <path
         d="M 8771,11184 H 8653"
         id="path98" />
      <path
         d="M 8771,13349 H 8653"
         id="path100" />
      <path
         d="M 6602,13349 V 11184"
         id="path102" />
      <path
         d="M 8771,13349 V 11184"
         id="path104" />
      <path
         d="m 6683,13349 v 689"
         id="path106" />
    </g>
    <g
       style="fill:#008484;fill-opacity:0;stroke:#008484;stroke-width:47.2441;stroke-linecap:round;stroke-linejoin:round;stroke-opacity:1"
       id="g170"
       transform="matrix(0.00254,0,0,0.00254,59.179739,151.0746)">
      <path
         d="m 3194,14668 v 708"
         id="path110" />
      <path
         d="m 4462,15376 v -964"
         id="path112" />
      <path
         d="m 10131,13383 v 128"
         id="path114" />
      <path
         d="m 9730,13383 v 128"
         id="path116" />
      <path
         d="m 5643,14761 v 128"
         id="path118" />
      <path
         d="m 5242,14761 v 128"
         id="path120" />
      <path
         d="m 4651,14889 v -128"
         id="path122" />
      <path
         d="m 5053,14889 v -128"
         id="path124" />
      <path
         d="m 4986,18510 v -634"
         id="path126" />
      <path
         d="M 8025,16219 H 7214"
         id="path128" />
      <path
         d="m 8025,16892 v -673"
         id="path130" />
      <path
         d="m 4986,16219 h 811"
         id="path132" />
      <path
         d="m 4986,16892 v -673"
         id="path134" />
      <path
         d="M 4986,18510 H 8025"
         id="path136" />
      <path
         d="m 8025,18510 v -634"
         id="path138" />
      <path
         d="m 5797,16219 v -232"
         id="path140" />
      <path
         d="m 9641,14313 v 900"
         id="path142" />
      <path
         d="m 9641,15213 h 579"
         id="path144" />
      <path
         d="m 10220,15213 v -900"
         id="path146" />
      <path
         d="m 9641,15495 v 899"
         id="path148" />
      <path
         d="m 9641,16394 h 579"
         id="path150" />
      <path
         d="m 10220,16394 v -899"
         id="path152" />
      <path
         d="m 5643,12005 v 128"
         id="path154" />
      <path
         d="m 5242,12005 v 128"
         id="path156" />
      <path
         d="M 5273,14050 V 13002"
         id="path158" />
      <path
         d="M 4250,14050 H 5273"
         id="path160" />
      <path
         d="M 4250,13002 H 5273"
         id="path162" />
      <path
         d="M 4250,14050 V 13002"
         id="path164" />
      <path
         d="M 3750,14050 H 3226"
         id="path166" />
      <path
         d="m 3226,14050 v -524"
         id="path168" />
    </g>
    <g
       style="fill:#008484;fill-opacity:0;stroke:#008484;stroke-width:59.0551;stroke-linecap:round;stroke-linejoin:round;stroke-opacity:1"
       id="g348"
       transform="matrix(0.00254,0,0,0.00254,59.179739,151.0746)">
      <g
         transform="rotate(-90,5423.23,12069.9)"
         id="g174">
        <text
           x="5423.23"
           y="12266.7"
           textLength="809.599"
           font-size="524.934px"
           lengthAdjust="spacingAndGlyphs"
           text-anchor="middle"
           opacity="0"
           id="text172">C2</text>
      </g>
      <path
         d="m 5563,12135 19,19 19,56 v 37 l -19,57 -37,37 -38,19 -75,19 h -56 l -75,-19 -38,-19 -37,-37 -19,-57 v -37 l 19,-56 19,-19"
         id="path176" />
      <path
         d="m 5245,11985 -19,-19 -19,-37 v -94 l 19,-37 19,-19 37,-19 h 38 l 56,19 225,225 v -244"
         id="path178" />
      <g
         transform="rotate(-90,3730.32,9786.42)"
         id="g182">
        <text
           x="3730.3201"
           y="9983.2695"
           textLength="845.42603"
           font-size="524.934px"
           lengthAdjust="spacingAndGlyphs"
           text-anchor="middle"
           opacity="0"
           id="text180">C1</text>
      </g>
      <path
         d="m 3870,9852 19,18 19,57 v 37 l -19,56 -37,38 -38,19 -75,18 h -56 l -75,-18 -38,-19 -37,-38 -19,-56 v -37 l 19,-57 19,-18"
         id="path184" />
      <path
         d="m 3908,9477 v 225"
         id="path186" />
      <path
         d="m 3908,9589 h -394 l 56,38 38,37 19,38"
         id="path188" />
      <g
         transform="rotate(-90,8316.93,7463.58)"
         id="g192">
        <text
           x="8316.9297"
           y="7660.4302"
           textLength="901.66901"
           font-size="524.934px"
           lengthAdjust="spacingAndGlyphs"
           text-anchor="middle"
           opacity="0"
           id="text190">M1</text>
      </g>
      <path
         d="m 8495,7782 h -394 l 281,-131 -281,-132 h 394"
         id="path194" />
      <path
         d="m 8495,7126 v 225"
         id="path196" />
      <path
         d="m 8495,7238 h -394 l 56,38 38,37 18,38"
         id="path198" />
      <g
         transform="rotate(-90,10324.8,11085.6)"
         id="g202">
        <text
           x="10324.8"
           y="11282.5"
           textLength="826.67798"
           font-size="524.934px"
           lengthAdjust="spacingAndGlyphs"
           text-anchor="middle"
           opacity="0"
           id="text200">S2</text>
      </g>
      <path
         d="m 10484,11385 18,-56 v -94 l -18,-37 -19,-19 -38,-19 h -37 l -38,19 -18,19 -19,37 -19,75 -19,38 -18,18 -38,19 h -37 l -38,-19 -19,-18 -18,-38 v -94 l 18,-56"
         id="path204" />
      <path
         d="m 10146,11010 -19,-19 -18,-37 v -94 l 18,-37 19,-19 38,-19 h 37 l 56,19 225,225 v -244"
         id="path206" />
      <g
         transform="rotate(-90,2687.01,11085.6)"
         id="g210">
        <text
           x="2687.01"
           y="11282.5"
           textLength="826.67798"
           font-size="524.934px"
           lengthAdjust="spacingAndGlyphs"
           text-anchor="middle"
           opacity="0"
           id="text208">S1</text>
      </g>
      <path
         d="m 2846,11385 19,-56 v -94 l -19,-37 -19,-19 -37,-19 h -38 l -37,19 -19,19 -19,37 -19,75 -18,38 -19,18 -38,19 h -37 l -38,-19 -18,-18 -19,-38 v -94 l 19,-56"
         id="path212" />
      <path
         d="m 2865,10785 v 225"
         id="path214" />
      <path
         d="m 2865,10898 h -394 l 56,37 38,38 18,37"
         id="path216" />
      <g
         transform="rotate(-90,4379.92,9707.68)"
         id="g220">
        <text
           x="4379.9199"
           y="9904.5303"
           textLength="864.17297"
           font-size="524.934px"
           lengthAdjust="spacingAndGlyphs"
           text-anchor="middle"
           opacity="0"
           id="text218">U1</text>
      </g>
      <path
         d="m 4164,10007 h 319 l 37,-19 19,-18 19,-38 v -75 l -19,-37 -19,-19 -37,-19 h -319"
         id="path222" />
      <path
         d="m 4558,9388 v 225"
         id="path224" />
      <path
         d="m 4558,9501 h -394 l 56,37 38,38 18,37"
         id="path226" />
      <g
         transform="rotate(-90,6596.46,12424.2)"
         id="g230">
        <text
           x="6596.46"
           y="12621.1"
           textLength="845.42603"
           font-size="524.934px"
           lengthAdjust="spacingAndGlyphs"
           text-anchor="middle"
           opacity="0"
           id="text228">R4</text>
      </g>
      <path
         d="m 6774,12489 -187,132"
         id="path232" />
      <path
         d="m 6774,12714 h -394 v -150 l 19,-37 19,-19 37,-19 h 57 l 37,19 19,19 19,37 v 150"
         id="path234" />
      <path
         d="m 6512,12152 h 262"
         id="path236" />
      <path
         d="m 6362,12246 281,93 v -243"
         id="path238" />
      <g
         transform="rotate(-90,6596.46,13605.3)"
         id="g242">
        <text
           x="6596.46"
           y="13802.2"
           textLength="845.42603"
           font-size="524.934px"
           lengthAdjust="spacingAndGlyphs"
           text-anchor="middle"
           opacity="0"
           id="text240">C4</text>
      </g>
      <path
         d="m 6737,13670 18,19 19,56 v 38 l -19,56 -37,38 -38,18 -75,19 h -56 l -75,-19 -37,-18 -38,-38 -19,-56 v -38 l 19,-56 19,-19"
         id="path244" />
      <path
         d="m 6512,13333 h 262"
         id="path246" />
      <path
         d="m 6362,13427 281,93 v -243"
         id="path248" />
      <g
         transform="rotate(-90,6238.19,12266.7)"
         id="g252">
        <text
           x="6238.1899"
           y="12463.6"
           textLength="864.17297"
           font-size="524.934px"
           lengthAdjust="spacingAndGlyphs"
           text-anchor="middle"
           opacity="0"
           id="text250">U3</text>
      </g>
      <path
         d="m 6022,12566 h 319 l 37,-19 19,-18 19,-38 v -75 l -19,-37 -19,-19 -37,-19 h -319"
         id="path254" />
      <path
         d="m 6022,12191 v -243 l 150,131 v -56 l 19,-38 19,-19 37,-18 h 94 l 37,18 19,19 19,38 v 112 l -19,37 -19,19"
         id="path256" />
      <g
         transform="rotate(-90,4970.47,15022.6)"
         id="g260">
        <text
           x="4970.4702"
           y="15219.5"
           textLength="864.17297"
           font-size="524.934px"
           lengthAdjust="spacingAndGlyphs"
           text-anchor="middle"
           opacity="0"
           id="text258">U2</text>
      </g>
      <path
         d="m 4754,15322 h 319 l 38,-19 18,-18 19,-38 v -75 l -19,-37 -18,-19 -38,-19 h -319"
         id="path262" />
      <path
         d="m 4792,14928 -19,-18 -19,-38 v -94 l 19,-37 19,-19 37,-19 h 38 l 56,19 225,225 v -244"
         id="path264" />
      <g
         transform="rotate(-90,10494.1,13447.8)"
         id="g268">
        <text
           x="10494.1"
           y="13644.7"
           textLength="845.42603"
           font-size="524.934px"
           lengthAdjust="spacingAndGlyphs"
           text-anchor="middle"
           opacity="0"
           id="text266">R3</text>
      </g>
      <path
         d="m 10672,13513 -188,131"
         id="path270" />
      <path
         d="m 10672,13738 h -394 v -150 l 19,-38 18,-18 38,-19 h 56 l 38,19 18,18 19,38 v 150"
         id="path272" />
      <path
         d="m 10278,13382 v -244 l 150,131 v -56 l 19,-38 18,-18 38,-19 h 94 l 37,19 19,18 19,38 v 112 l -19,38 -19,19"
         id="path274" />
      <g
         transform="rotate(-90,6005.91,14825.8)"
         id="g278">
        <text
           x="6005.9102"
           y="15022.6"
           textLength="845.42603"
           font-size="524.934px"
           lengthAdjust="spacingAndGlyphs"
           text-anchor="middle"
           opacity="0"
           id="text276">R2</text>
      </g>
      <path
         d="m 6184,14891 -188,131"
         id="path280" />
      <path
         d="m 6184,15116 h -394 v -150 l 19,-38 18,-18 38,-19 h 56 l 38,19 18,18 19,38 v 150"
         id="path282" />
      <path
         d="m 5827,14741 -18,-19 -19,-37 v -94 l 19,-38 18,-18 38,-19 h 37 l 57,19 225,225 v -244"
         id="path284" />
      <g
         transform="rotate(-90,4289.37,14825.8)"
         id="g288">
        <text
           x="4289.3701"
           y="15022.6"
           textLength="845.42603"
           font-size="524.934px"
           lengthAdjust="spacingAndGlyphs"
           text-anchor="middle"
           opacity="0"
           id="text286">R1</text>
      </g>
      <path
         d="m 4467,14891 -188,131"
         id="path290" />
      <path
         d="m 4467,15116 h -394 v -150 l 19,-38 19,-18 37,-19 h 57 l 37,19 19,18 18,38 v 150"
         id="path292" />
      <path
         d="m 4467,14516 v 225"
         id="path294" />
      <path
         d="m 4467,14628 h -394 l 57,38 37,37 19,38"
         id="path296" />
      <text
         x="6505.9102"
         y="15672.2"
         textLength="751.68701"
         font-size="524.934px"
         lengthAdjust="spacingAndGlyphs"
         text-anchor="middle"
         opacity="0"
         id="text298">J1</text>
      <path
         d="m 6374,15259 v 282 l -19,56 -37,37 -56,19 h -38"
         id="path300" />
      <path
         d="M 6768,15653 H 6543"
         id="path302" />
      <path
         d="m 6655,15653 v -394 l -37,57 -38,37 -37,19"
         id="path304" />
      <g
         transform="rotate(-90,9368.11,14628.9)"
         id="g308">
        <text
           x="9368.1104"
           y="14825.8"
           textLength="845.42603"
           font-size="524.934px"
           lengthAdjust="spacingAndGlyphs"
           text-anchor="middle"
           opacity="0"
           id="text306">D2</text>
      </g>
      <path
         d="m 9546,14919 h -394 v -94 l 19,-56 37,-37 38,-19 75,-19 h 56 l 75,19 37,19 38,37 19,56 v 94"
         id="path310" />
      <path
         d="m 9190,14544 -19,-19 -19,-37 v -94 l 19,-37 19,-19 37,-19 h 37 l 57,19 225,225 v -244"
         id="path312" />
      <g
         transform="rotate(-90,9368.11,15810)"
         id="g316">
        <text
           x="9368.1104"
           y="16006.9"
           textLength="845.42603"
           font-size="524.934px"
           lengthAdjust="spacingAndGlyphs"
           text-anchor="middle"
           opacity="0"
           id="text314">D1</text>
      </g>
      <path
         d="m 9546,16100 h -394 v -94 l 19,-56 37,-37 38,-19 75,-19 h 56 l 75,19 37,19 38,37 19,56 v 94"
         id="path318" />
      <path
         d="m 9546,15500 v 225"
         id="path320" />
      <path
         d="m 9546,15613 h -394 l 56,37 38,38 18,37"
         id="path322" />
      <g
         transform="rotate(-90,6005.91,12069.9)"
         id="g326">
        <text
           x="6005.9102"
           y="12266.7"
           textLength="845.42603"
           font-size="524.934px"
           lengthAdjust="spacingAndGlyphs"
           text-anchor="middle"
           opacity="0"
           id="text324">C3</text>
      </g>
      <path
         d="m 6146,12135 19,19 19,56 v 37 l -19,57 -38,37 -37,19 -75,19 h -56 l -75,-19 -38,-19 -37,-37 -19,-57 v -37 l 19,-56 18,-19"
         id="path328" />
      <path
         d="m 5790,12004 v -244 l 150,131 v -56 l 19,-37 18,-19 38,-19 h 94 l 37,19 19,19 19,37 v 113 l -19,37 -19,19"
         id="path330" />
      <g
         transform="rotate(-90,2832.68,13526.6)"
         id="g334">
        <text
           x="2832.6799"
           y="13723.4"
           textLength="1145.39"
           font-size="524.934px"
           lengthAdjust="spacingAndGlyphs"
           text-anchor="middle"
           opacity="0"
           id="text332">BT1</text>
      </g>
      <path
         d="m 2804,13835 19,-56 19,-19 37,-18 h 56 l 38,18 19,19 18,38 v 150 h -393 v -132 l 18,-37 19,-19 38,-19 h 37 l 38,19 18,19 19,37 v 132"
         id="path336" />
      <path
         d="m 2617,13629 v -225"
         id="path338" />
      <path
         d="M 3010,13517 H 2617"
         id="path340" />
      <path
         d="m 3010,13067 v 225"
         id="path342" />
      <path
         d="m 3010,13179 h -393 l 56,38 37,37 19,38"
         id="path344" />
      <g
         id="g346" />
    </g>
  </g>
  <g
     inkscape:groupmode="layer"
     id="layer3"
     inkscape:label="b_user_drawing"
     style="display:none">
    <g
       style="fill:#c2c2c2;fill-opacity:0;stroke:#c2c2c2;stroke-width:19.685;stroke-linecap:round;stroke-linejoin:round;stroke-opacity:1"
       id="g374"
       transform="matrix(0.00254,0,0,0.00254,59.17974,151.0746)">
      <path
         d="m 3159.45,1833.66 a 393.701,393.701 0 0 0 -393.7,393.7"
         id="path354" />
      <path
         d="m 10246.1,2227.36 a 393.701,393.701 0 0 0 -393.74,-393.7"
         id="path356" />
      <path
         d="m 9852.36,17975.4 a 393.701,393.701 0 0 0 393.74,-393.7"
         id="path358" />
      <path
         d="m 2765.75,17581.7 a 393.701,393.701 0 0 0 393.7,393.7"
         id="path360" />
      <path
         d="m 2175.2,17778.5 a 787.402,787.402 0 0 0 787.4,787.4"
         id="path362" />
      <path
         d="m 10049.2,18565.9 a 787.402,787.402 0 0 0 787.4,-787.4"
         id="path364" />
      <path
         d="m 10836.6,2030.51 a 787.402,787.402 0 0 0 -787.4,-787.4"
         id="path366" />
      <path
         d="m 2962,18565 h 7087"
         id="path368" />
      <path
         d="m 2962,1243 h 7087"
         id="path370" />
      <path
         d="m 2962.6,1243.11 a 787.402,787.402 0 0 0 -787.4,787.4"
         id="path372" />
    </g>
    <path
       d="M 86.70318,196.23072 V 156.2308"
       id="path464"
       style="fill:#c2c2c2;fill-opacity:0;stroke:#c2c2c2;stroke-width:0.0499999;stroke-linecap:round;stroke-linejoin:round;stroke-opacity:1" />
    <path
       d="M 64.70424,196.23072 V 156.2308"
       id="path466"
       style="fill:#c2c2c2;fill-opacity:0;stroke:#c2c2c2;stroke-width:0.0499999;stroke-linecap:round;stroke-linejoin:round;stroke-opacity:1" />
    <g
       style="fill:#c2c2c2;fill-opacity:0;stroke:#c2c2c2;stroke-width:19.685;stroke-linecap:round;stroke-linejoin:round;stroke-opacity:1"
       id="g588"
       transform="matrix(0.00254,0,0,0.00254,59.17974,151.0746)">
      <path
         d="M 2765,17581 V 2227"
         id="path544" />
      <path
         d="M 9852,17975 H 3159"
         id="path546" />
      <path
         d="M 10246,17581 V 2227"
         id="path548" />
      <path
         d="M 3159,1833 H 9852"
         id="path550" />
      <g
         id="g552" />
      <g
         id="g554" />
      <g
         id="g556" />
      <g
         id="g558" />
      <g
         id="g560" />
      <g
         id="g562" />
      <g
         id="g564" />
      <g
         id="g566" />
      <g
         id="g568" />
      <g
         id="g570" />
      <g
         id="g572" />
      <g
         id="g574" />
      <g
         id="g576" />
      <g
         id="g578" />
      <g
         id="g580" />
      <g
         id="g582" />
      <g
         id="g584" />
      <g
         id="g586" />
    </g>
  </g>
  <g
     inkscape:groupmode="layer"
     id="layer2"
     inkscape:label="a_edge_cut"
     style="display:inline">
    <path
       d="M 59.2026,159.73092 V 192.7306"
       id="path620"
       style="fill:#c2c200;fill-opacity:0;stroke:#c2c200;stroke-width:0.0499999;stroke-linecap:round;stroke-linejoin:round;stroke-opacity:1" />
    <path
       d="m 59.204741,192.73212 a 5.499989,5.499989 0 0 0 5.500007,5.49987"
       id="path622"
       style="fill:#c2c200;fill-opacity:0;stroke:#c2c200;stroke-width:0.0499999;stroke-linecap:round;stroke-linejoin:round;stroke-opacity:1" />
    <path
       d="M 61.20412,191.232 V 161.23206"
       id="path624"
       style="fill:#c2c200;fill-opacity:0;stroke:#c2c200;stroke-width:0.0499999;stroke-linecap:round;stroke-linejoin:round;stroke-opacity:1" />
    <path
       d="m 64.704748,154.2321 a 5.499989,5.499989 0 0 0 -5.500007,5.49999"
       id="path626"
       style="fill:#c2c200;fill-opacity:0;stroke:#c2c200;stroke-width:0.0499999;stroke-linecap:round;stroke-linejoin:round;stroke-opacity:1" />
    <path
       d="M 63.2031,161.23206 V 191.232"
       id="path628"
       style="fill:#c2c200;fill-opacity:0;stroke:#c2c200;stroke-width:0.0499999;stroke-linecap:round;stroke-linejoin:round;stroke-opacity:1" />
    <path
       d="m 61.20474,191.232 a 1.0000056,1.0000056 0 0 0 2.000011,0"
       id="path630"
       style="fill:#c2c200;fill-opacity:0;stroke:#c2c200;stroke-width:0.0499999;stroke-linecap:round;stroke-linejoin:round;stroke-opacity:1" />
    <path
       d="m 63.204751,161.23211 a 1.0000056,1.0000056 0 0 0 -2.000011,0"
       id="path632"
       style="fill:#c2c200;fill-opacity:0;stroke:#c2c200;stroke-width:0.0499999;stroke-linecap:round;stroke-linejoin:round;stroke-opacity:1" />
    <path
       d="m 86.704704,198.23199 a 5.499989,5.499989 0 0 0 5.500116,-5.49987"
       id="path634"
       style="fill:#c2c200;fill-opacity:0;stroke:#c2c200;stroke-width:0.0499999;stroke-linecap:round;stroke-linejoin:round;stroke-opacity:1" />
    <path
       d="M 92.20482,159.73209 A 5.499989,5.499989 0 0 0 86.704704,154.2321"
       id="path636"
       style="fill:#c2c200;fill-opacity:0;stroke:#c2c200;stroke-width:0.0499999;stroke-linecap:round;stroke-linejoin:round;stroke-opacity:1" />
    <path
       d="m 90.204824,161.23211 a 1.0000005,1.0000005 0 0 0 -1.999996,0"
       id="path638"
       style="fill:#c2c200;fill-opacity:0;stroke:#c2c200;stroke-width:0.0499999;stroke-linecap:round;stroke-linejoin:round;stroke-opacity:1" />
    <path
       d="m 88.204828,191.232 a 1.0000005,1.0000005 0 0 0 1.999996,0"
       id="path640"
       style="fill:#c2c200;fill-opacity:0;stroke:#c2c200;stroke-width:0.0499999;stroke-linecap:round;stroke-linejoin:round;stroke-opacity:1" />
    <path
       d="M 92.20228,192.7306 V 159.73092"
       id="path642"
       style="fill:#c2c200;fill-opacity:0;stroke:#c2c200;stroke-width:0.0499999;stroke-linecap:round;stroke-linejoin:round;stroke-opacity:1" />
    <path
       d="M 90.2033,161.23206 V 191.232"
       id="path644"
       style="fill:#c2c200;fill-opacity:0;stroke:#c2c200;stroke-width:0.0499999;stroke-linecap:round;stroke-linejoin:round;stroke-opacity:1" />
    <path
       d="M 88.20432,191.232 V 161.23206"
       id="path646"
       style="fill:#c2c200;fill-opacity:0;stroke:#c2c200;stroke-width:0.0499999;stroke-linecap:round;stroke-linejoin:round;stroke-opacity:1" />
    <path
       d="M 86.70318,198.2297 H 64.70424"
       id="path648"
       style="fill:#c2c200;fill-opacity:0;stroke:#c2c200;stroke-width:0.0499999;stroke-linecap:round;stroke-linejoin:round;stroke-opacity:1" />
    <path
       d="M 64.70424,154.23182 H 86.70318"
       id="path650"
       style="fill:#c2c200;fill-opacity:0;stroke:#c2c200;stroke-width:0.0499999;stroke-linecap:round;stroke-linejoin:round;stroke-opacity:1" />
  </g>
</svg>
